<?xml version="1.0" encoding="utf-8"?>
<!-- Generator: Adobe Illustrator 18.1.1, SVG Export Plug-In . SVG Version: 6.00 Build 0)  -->
<svg version="1.1" id="Layer_1" xmlns="http://www.w3.org/2000/svg" xmlns:xlink="http://www.w3.org/1999/xlink" x="0px" y="0px"
	 viewBox="0 0 85.1 36" enable-background="new 0 0 85.1 36" xml:space="preserve">
<g>
	<path fill-rule="evenodd" clip-rule="evenodd" fill="#7E4D00" d="M48.2,5.6c2.6-2.8,5.9-5,9.7-5.3l0.1,0l0.1,0
		c2.7,0,5.4,0.7,6.9,3.1c0.1,0.2,0.3,0.4,0.4,0.7C68,1.4,71.8,0,75.9,0c6.5,0,10.5,4.9,8.8,11.3c-1.6,6-7.4,9.8-13.5,9.8
		c-2.1,0-4.2-0.5-6-1.6c-1.2,1.1-2.8,1.4-4.6,1.4c-5.2,0-10.3,0-15.5,0h0c-1.4,0-2.6-0.5-3.5-1.5c-2.1,1.1-4.5,1.7-6.9,1.7
		c-2.1,0-4.3-0.5-6-1.6c-1.2,1.1-2.8,1.5-4.6,1.4c-5.2,0-10.3,0-15.5,0h0c-1.8,0-3.4-0.9-4.2-2.6c-1.2-2.6,0.3-5.4,2.8-6.4
		c3-5.3,7.8-11,14.1-11.5l0.1,0l0.1,0c2.7,0,5.4,0.7,6.9,3.1c0.1,0.2,0.3,0.5,0.4,0.7C31.5,1.4,35.3,0,39.4,0
		C43.8,0,47,2.2,48.2,5.6"/>
	<path fill-rule="evenodd" clip-rule="evenodd" fill="#F6A840" d="M34.6,10c0.4-1.3,1.5-2.5,2.9-2.5c1.6,0,1.9,1.1,1.6,2.5
		c-0.4,1.4-1.3,2.3-2.8,2.3C34.8,12.3,34.2,11.4,34.6,10 M28,10.2c-1.2,4.4,2,7.5,6.7,7.5c5.1,0,9.6-3.1,10.9-7.8
		c1.2-4.4-1.3-7.8-6.2-7.8C33.8,2.1,29.3,5.1,28,10.2z"/>
	<path fill-rule="evenodd" clip-rule="evenodd" fill="#F6A840" d="M18.1,13.5c0.8-1,1.5-3.2,1.6-4.8c0.1-0.8-0.7-0.9-1.5,0
		c-1.5,1.8-2.4,3.4-3,4.9C16.3,13.6,17,13.5,18.1,13.5 M8.6,17.5c-2.8,0-2.4-3.9,0.4-3.9c2.3-4.4,6.7-10.7,12.6-11.2
		c6.9-0.1,5.6,6.2,3.8,10.7c1.6,0,2.4,1.3,2.1,2.6c-0.5,1.5-1.9,1.8-3.4,1.8C18.7,17.5,14,17.5,8.6,17.5z"/>
	<path fill-rule="evenodd" clip-rule="evenodd" fill="#F6A840" d="M71,10c0.4-1.3,1.5-2.5,2.9-2.5c1.6,0,1.9,1.1,1.6,2.5
		c-0.4,1.4-1.3,2.3-2.8,2.3C71.2,12.3,70.6,11.4,71,10 M64.4,10.2c-1.2,4.4,2,7.5,6.8,7.5c5.1,0,9.6-3.1,10.9-7.8
		c1.2-4.4-1.3-7.8-6.2-7.8C70.3,2.1,65.8,5.1,64.4,10.2z"/>
	<path fill-rule="evenodd" clip-rule="evenodd" fill="#F6A840" d="M54.6,13.5c0.8-1,1.5-3.2,1.6-4.8c0.1-0.8-0.7-0.9-1.5,0
		c-1.5,1.8-2.4,3.4-3,4.9C52.9,13.6,53.5,13.5,54.6,13.5 M45.1,17.5c-2.8,0-2.4-3.9,0.4-3.9c2.3-4.4,6.7-10.7,12.6-11.2
		c6.9-0.1,5.6,6.2,3.8,10.7c1.6,0,2.4,1.3,2.1,2.6c-0.5,1.5-1.9,1.8-3.4,1.8C55.2,17.5,50.5,17.5,45.1,17.5z"/>
	<path fill-rule="evenodd" clip-rule="evenodd" fill="#7E4D00" d="M65,24.3c0,0,0.1-0.1,0.1-0.1c0,0,0-0.1-0.1-0.1
		C65.1,24.2,65,24.3,65,24.3 M49.7,20.1c1.1-1.4,2.8-2,4.7-2c1.3,0,2.5,0.5,3.1,1.4c1-1,2.5-1.4,4.1-1.4c1.2,0,2.4,0.4,3.2,1.2
		c0.3,0.3,0.6,0.7,0.7,1c1.7-2.1,5.7-2.6,8.1-2.6c2.3,0,4.8,0.6,6.1,2.7c0.9,1.4,0.9,2.9,0.4,4.5c-0.5,1.6-1,3.1-1.5,4.7
		c-0.8,2.6-3.6,3.9-6.1,3.9h-0.2c-1,0-1.9-0.3-2.7-0.8c-0.8,0.4-1.7,0.6-2.9,0.6h-0.4c-0.9,0-1.8-0.2-2.5-0.6l0,0
		c-0.8,2-2.8,3.2-4.9,3.2h0l0,0c-1,0-1.9-0.4-2.5-1.2c-0.5-0.6-0.7-1.3-0.8-2c-1.5,0-3,0-4.4,0c-1,0-2-0.2-2.8-0.7
		c-0.1,0.2-0.1,0.3-0.2,0.5l0,0l0,0c-0.8,2-2.6,3.2-4.7,3.2h0l0,0c-2.1-0.1-3.2-1.4-3.4-3.1c-1.5,0-3,0-4.5,0c-1.6,0-3.1-0.5-4-1.7
		c-1.2,1.1-2.9,1.7-4.5,1.7c-1.3,0-2.7-0.4-3.5-1.5c-1.2,1.1-2.4,1.5-4.3,1.5h0c-1.3,0-2.7-0.4-3.5-1.4c-1.2,0.9-2.7,1.4-4,1.4
		c-1.4,0-2.8-0.4-3.6-1.5c-1,1.1-2.3,1.6-4,1.5c-0.6,0-1.2-0.1-1.7-0.3c-2-0.6-3.2-2.2-2.4-4.3c0.8-2.2,1.6-4.4,2.4-6.7l0,0l0,0
		c1-2.4,3.7-3.5,6.2-3.5h6.3l0,0c1.5,0,3,0.5,3.9,1.6c1.1-1.1,2.7-1.6,4.2-1.6c1.2,0,2.5,0.5,3.2,1.5c1.3-1.2,3.2-1.6,4.9-1.5
		c0.6,0,1.2,0.1,1.7,0.3c0.6,0.2,1.2,0.6,1.6,1c1.1-0.9,2.5-1.3,4.1-1.3c1.3,0,2.5,0.5,3.1,1.4c1-1,2.5-1.4,4.1-1.4
		c1.2,0,2.4,0.4,3.2,1.2C49.4,19.5,49.6,19.8,49.7,20.1z"/>
	<path fill-rule="evenodd" clip-rule="evenodd" fill="#FFFFFF" d="M27.3,30.5c-2.1,0-2.4-1.3-2.1-2.1l1.1-3.1
		c-1.2,1.3-2.1,2.5-3.4,3.8c-1,1-1.7,1.4-3.3,1.4c-2.4,0-2.4-1.4-2.1-2.2c0.9-2.4,1.6-4.5,2.5-6.9c0.3-0.8,1.5-1.9,3.4-1.9
		c1.7,0,2.1,1.2,1.7,2L23.8,25c1.4-1.5,2.5-2.7,3.8-4.2c0.8-0.9,2.1-1.3,3.8-1.2c1,0,2.9,0.5,2.3,2.1c-0.9,2.3-1.6,4.4-2.5,6.7
		C30.9,29.1,29.5,30.5,27.3,30.5"/>
	<path fill-rule="evenodd" clip-rule="evenodd" fill="#FFFFFF" d="M12.2,30.5c-1.8,0-2.8-1-2.3-2.2c0.8-1.9,1.4-3.8,2.1-5.7
		c-0.3-0.1-1.5-0.1-2,0c-0.7,1.9-1.4,3.9-2.1,5.8c-0.7,2-2.1,2.2-3.2,2.1c-1,0-3-0.4-2.4-2C3,26.3,3.8,24,4.6,21.8
		c0.4-1,1.7-2.3,4.4-2.3h6.3c2.6,0.1,3.3,1.7,2.8,3.1L16,28.2C15.7,29.1,13.9,30.5,12.2,30.5"/>
	<path fill-rule="evenodd" clip-rule="evenodd" fill="#FFFFFF" d="M43.7,33.5c-1.6,0-1.8-1.7-1.4-3.1c-2.6,0-4,0-6.6,0
		c-2.8,0-3.1-1.8-2.5-3.2c0.8-2.2,1.2-3.6,2.1-5.8c0.6-1.6,2.1-2,3.6-2c1.6,0,2.1,1,1.7,2l-2.2,5.9h2.3c0.7-2,1.2-4,1.9-5.9
		c0.5-1.2,1.4-2,3.4-2c1.9,0.1,2.6,1.2,2.3,1.9c-0.7,2-1.3,4-2.1,6c1-0.1,1.9,0.2,1.3,1.7c-0.3,0.8-0.6,1.6-0.9,2.4
		C46.3,32.4,45.4,33.5,43.7,33.5"/>
	<path fill-rule="evenodd" clip-rule="evenodd" fill="#FFFFFF" d="M70.7,25.9c0.5,0,0.9,0.5,0.7,1.2c-0.3,0.9-0.7,1.2-1.6,1.2
		c-0.7,0-0.9-0.7-0.6-1.3C69.4,26.4,70,25.9,70.7,25.9 M67.6,23.1c1.2,0,1.3-0.4,2.5-0.4c1.2,0,1.9,0.4,1.7,1.6c-2-0.3-5.9,0-7,3
		c-0.8,2-0.6,3.6,1.9,3.6h0.4c1.9,0,2.6-0.8,3.4-1.6c0,1.1,0.8,1.7,2.2,1.7h0.2c1.8,0,3.8-0.9,4.3-2.6c0.5-1.5,1-3.1,1.5-4.7
		c1-3.1-1.5-4.7-4.8-4.7c-1.5,0-6.3,0.3-7,2.4C66.7,22.4,66.9,23.1,67.6,23.1z"/>
	<path fill-rule="evenodd" clip-rule="evenodd" fill="#FFFFFF" d="M59.2,33.6c-1.6,0-1.6-1.8-1.2-3.2c-2.6,0-4,0-6.6,0
		c-2.8,0-3.1-1.8-2.5-3.2c0.8-2.2,1.2-3.6,2.1-5.8c0.6-1.6,2.1-2,3.6-2c1.6,0,2.1,1,1.7,2l-2.2,5.9h2.3c0.7-2,1.2-4,1.9-5.9
		c0.5-1.2,1.4-2,3.4-2c1.9,0,2.6,1.2,2.3,1.9c-0.7,2-1.3,4-2.1,6c1-0.1,1.9,0.2,1.3,1.7c-0.3,0.8-0.6,1.6-0.9,2.4
		C62,32.4,60.9,33.6,59.2,33.6"/>
</g>
</svg>
