<?xml version="1.0" encoding="utf-8"?>
<!-- Generator: Adobe Illustrator 19.0.1, SVG Export Plug-In . SVG Version: 6.00 Build 0)  -->
<svg version="1.1" id="Layer_1" xmlns="http://www.w3.org/2000/svg" xmlns:xlink="http://www.w3.org/1999/xlink" x="0px" y="0px"
	 viewBox="120.4 237.7 295.1 120.5" style="enable-background:new 120.4 237.7 295.1 120.5;" xml:space="preserve">
<style type="text/css">
	.st0{fill:#7D4900;}
	.st1{fill:#FFFFFF;}
	.st2{fill:#F7941E;}
</style>
<g>
	<g>
		<path class="st0" d="M410.1,249.1c-5.6-7.4-14.8-11.4-26-11.4c-13.7,0-25.9,4.6-34.9,12.5c-0.1-0.2-0.2-0.3-0.3-0.4
			c-3.8-4.7-11.4-10.4-26.1-10.4c-7,0-17.1,0.9-24.2,1.8c-3.6,0.4-6.9,2.4-9.2,5.3c-5.7-5.6-13.9-8.7-23.6-8.7
			c-13.6,0-25.8,4.5-34.7,12.4c-0.1-0.1-0.2-0.2-0.2-0.3c-3.8-4.7-11.4-10.4-26.1-10.4c-7,0-17.1,0.9-24.2,1.8
			c-5.4,0.6-10.3,4.9-11.8,10.2l-11,40c-0.5,1.7-0.6,3.5-0.3,5.3c-2.9-1.4-6.4-1.8-9.8-1.6l0,0c-0.7,0-1.4,0.1-2.2,0.3
			c-0.7,0.1-1.4,0.3-2.1,0.4l0,0h-0.1c-0.8,0.2-1.6,0.5-2.3,0.8c-0.2,0.1-0.4,0.1-0.4,0.2c-0.1,0-0.2,0.1-0.4,0.2l0,0l0,0l0,0
			c-3.9,1.8-7.2,4.6-9.4,8.5c-0.4,0.7-0.8,1.5-1.1,2.4c-0.3,0.8-0.6,1.6-0.9,2.6l0,0l-7.6,27.7c-0.3,1.1-0.5,2.2-0.6,3.3l0,0
			c0,0.2,0,0.4-0.1,0.6c0,0.1,0,0.3,0,0.6l0,0v0.1c-0.1,2.3,0.2,4.5,1,6.5c0.2,0.4,0.3,0.8,0.5,1.2c0.2,0.4,0.4,0.8,0.6,1.1l0,0v0.1
			l0,0c1.4,2.2,3.2,3.9,5.6,5c0.5,0.2,0.9,0.4,1.4,0.6s1,0.3,1.5,0.4l0,0l0,0l0.2,0.1l0,0c0.4,0.1,0.8,0.2,1.3,0.2l0,0h0.3l0,0
			c0.6,0.1,1.2,0.1,1.8,0.1l0,0h4.7c5.4,0,9.1-1.4,11.9-3.9c2.4-2.1,4-4.8,5.3-7.9c0.3,0,0.5,0,0.7,0h3v-0.1
			c0.9-0.1,1.9-0.2,2.7-0.3c0.2,0,0.5-0.1,0.9-0.2c0.3-0.1,0.5-0.1,0.8-0.2l0,0l0,0c1.4-0.3,2.6-0.7,3.9-1.2l0,0
			c0.2-0.1,0.5-0.2,0.7-0.3s0.5-0.2,0.7-0.3l0,0l0,0c0.8-0.4,1.6-0.8,2.4-1.3c1.2,1.1,2.6,2,4.2,2.6c0.4,0.2,0.8,0.3,1.2,0.4
			c0.5,0.1,0.9,0.3,1.3,0.4l0,0l0,0l0.2,0.1l0,0c0.5,0.1,1,0.2,1.6,0.3l0,0h0.3l0,0c0.7,0.1,1.5,0.1,2.3,0.1l0,0h3v-0.1
			c0.1,0,0.3,0,0.5-0.1c0.1,0,0.3,0,0.5-0.1c0.5-0.1,0.9-0.1,1.3-0.2c0.7-0.2,1.5-0.4,2.3-0.6l0,0l0.5-0.1l0,0l0.4-0.2l0,0l0,0
			l0.2-0.1c0.4,0.2,0.7,0.4,1.1,0.5l0,0c0.1,0.1,0.3,0.1,0.4,0.2c0.1,0,0.2,0.1,0.4,0.1l0,0l0,0c0.6,0.2,1.2,0.3,1.9,0.4l0,0h0.3
			l0,0c0.7,0.1,1.5,0.2,2.2,0.2l0,0H222v-0.1c0.4,0,0.7-0.1,1.1-0.1c0.3,0,0.6-0.1,0.8-0.1c0.2,0,0.5-0.1,0.8-0.2l0,0
			c0.6-0.1,1.2-0.3,1.8-0.5l0,0l0.3-0.1l0.2-0.1c0.2,0.1,0.5,0.2,0.7,0.3l0,0l0.3,0.1h0.1l0.3,0.1l0,0l0,0c0.6,0.2,1.2,0.3,1.9,0.4
			l0,0h0.3l0,0c0.7,0.1,1.5,0.2,2.2,0.2l0,0h23.1v-0.1c0.3,0,0.7-0.1,1-0.1s0.6-0.1,0.8-0.1c0.2,0,0.5-0.1,0.8-0.2l0,0
			c0.6-0.1,1.2-0.3,1.8-0.5l0,0l0.3-0.1c0.4-0.1,0.9-0.4,1.5-0.6l0,0l0.2-0.1c4.7,2.4,11.7,2.5,16.4,0.6c3.8,1.5,11.5,1.9,15.4-0.1
			l0.3-0.1l0,0l0,0c4.1-1.4,7.8-3.9,10.2-7.6c0.5-0.7,0.9-1.5,1.3-2.3c0.1-0.3,0.3-0.6,0.4-1h0.1l0.4-1.4l0,0l0,0v-0.2l0,0
			c1.4-4.9,3.4-10.2,4-15.4c0-0.2,0-0.5,0.1-0.7c0-0.1,0-0.4,0-0.7l0,0v-0.1c0.1-2.5-0.3-4.8-1-6.9l-0.1-0.1
			c12.3-0.5,22.4-3.9,29.9-9.9c6,7.4,15.9,11.6,27.3,11.6c22.2,0,41.5-13.9,47-33.8C417.1,266,415.6,256.4,410.1,249.1z"/>
		<path class="st1" d="M177.8,326.3c-1.3,4.7,1.1,7.2,5.8,7.2h1.1c4.1,0,8.5-2.7,9.6-6.6l4.2-15.5c1.3-4.7-1.1-7.2-5.8-7.2h-1.1
			c-4.6,0-8.4,2.5-9.7,7.2L177.8,326.3z"/>
		<path class="st1" d="M250.3,323.5c2.2-3.6,13.9-12.8,15-16c0.9-2.6-1.1-3.3-3.8-3.3h-19.3c-3,0-5.7,2-6.7,5
			c-1.6,4.5,5.5,4.4,10.1,4.4c-2.5,2.9-14.4,14.4-15.2,16.6l-0.4,1.1c-0.6,1.7,0.8,2.2,2.5,2.2h21c3.4,0,6.6-1.6,7.8-5l0.2-0.5
			c1.2-3.4-1.2-4.4-4.5-4.4h-6.7V323.5z"/>
		<path class="st1" d="M271.4,313.5c2.5,0.2,3.5-1.3,6.7-1.3c3.3,0,5.2,1.4,4.6,4.5c-8.2-1-16.6,0.5-18.8,8.7
			c-1.3,4.7,0.2,8.5,5.9,8.5c4.5,0,6.8-1,9.9-4.1c0,2.8,2.4,4.4,5.9,4.4c0.2,0,0.4,0,0.6,0c4.7,0,9.9-2.3,11.2-6.8
			c1.1-4.1,2.2-8.2,3.4-12.3c2.3-8.3-4.5-12.3-13-12.3c-0.6,0-1.2,0-1.8,0c-4.9,0-15.3,2.1-16.4,6.5
			C268.9,311.2,269.5,313.5,271.4,313.5 M279.9,320.4c1.4,0,2.5,1.6,2.1,2.9c-0.7,2.5-2,3.5-4.5,3.5c-0.6,0-1.9-1.7-1.5-2.9
			c0.1-0.2,0.1-0.4,0.2-0.6C276.6,322,278.6,320.4,279.9,320.4z"/>
		<path class="st1" d="M158.9,333.5c8.8,0,15.1-6.8,17.5-15.7c1.8-6.6,0.1-15.1-8.4-15.1c-6.2,0-9.4,2.3-12.4,4.7
			c0-2.3-2.5-4.7-5.4-4.7c-5.7-0.2-10,1.6-11.6,7.6l-7.5,27.3c-1.5,5.3,1.1,7.6,5.9,7.6c9.7,0,10.9-5.4,13.3-14
			C153.1,333,155.5,333.5,158.9,333.5 M157.4,313.7c5.6,0,2.9,10-2.4,10c-3.7,0-3.7-2.7-3-5.2C152.7,315.7,154.1,313.7,157.4,313.7z
			"/>
		<path class="st1" d="M216.7,323.5c2.4-3,13.9-12.8,15-16c0.9-2.6-1.1-3.3-3.8-3.3h-19.3c-3,0-6.1,1.9-6.7,5
			c-1,5.1,5.5,4.4,10.1,4.4c-2.5,2.9-14.4,14.4-15.2,16.6l-0.4,1.1c-0.6,1.7,0.8,2.2,2.5,2.2h21c3.4,0,6.6-1.6,7.8-5
			c1.3-3.6-0.8-5-4.3-5H216.7z"/>
		<g>
			<g>
				<path class="st2" d="M345.2,272.9c-4,14.6,6.5,25.1,22.5,25.1c16.9,0,32.3-10.5,36.6-26c4.1-14.8-4.1-26.3-20.7-26.3
					C365,245.8,349.9,255.8,345.2,272.9 M367.3,272.2c1.2-4.3,5.2-8.4,9.8-8.4c5.5,0,6.5,3.8,5.3,8.3c-1.3,4.7-4.3,7.8-9.4,7.8
					C368,279.9,366,276.9,367.3,272.2z"/>
			</g>
			<g>
				<path class="st2" d="M226.9,272.9c-4,14.6,6.5,25.1,22.5,25.1c16.9,0,32.3-10.5,36.5-26c4.1-14.8-4.1-26.3-20.7-26.3
					C246.6,245.8,231.6,255.8,226.9,272.9 M248.9,272.2c1.2-4.3,5.2-8.4,9.8-8.4c5.5,0,6.5,3.8,5.3,8.3c-1.3,4.7-4.3,7.8-9.4,7.8
					C249.6,279.9,247.6,276.9,248.9,272.2z"/>
			</g>
			<g>
				<g>
					<path class="st2" d="M181,249c-1.9,0.2-3.8,1.9-4.3,3.7l-10.4,37.7c-0.5,1.8,0.6,3.7,2.4,4.1c5.5,1.2,12.9,1.8,19.1,1.8
						c19,0,32.4-7.8,36-23.7c3.6-16.4-4.4-25.2-21-25.2C197.2,247.4,188.5,248.1,181,249z M201.9,272.7c-1.3,4.7-4.3,7.8-9.4,7.8
						c-0.6,0-3.3-0.1-3.9-0.1l4.3-15.7c0.5-0.1,3.1-0.2,3.7-0.2C202.1,264.5,203.1,268.3,201.9,272.7z"/>
				</g>
			</g>
			<g>
				<g>
					<path class="st2" d="M299.1,249c-1.9,0.2-3.8,1.9-4.3,3.7l-10.4,37.7c-0.5,1.8,0.6,3.7,2.4,4.1c5.5,1.2,12.9,1.8,19.1,1.8
						c19,0,32.4-7.8,36-23.7c3.6-16.4-4.4-25.2-21-25.2C315.3,247.4,306.6,248.1,299.1,249z M319.9,272.7c-1.3,4.7-4.3,7.8-9.4,7.8
						c-0.6,0-3.3-0.1-3.9-0.1l4.3-15.7c0.5-0.1,3.1-0.2,3.7-0.2C320.2,264.5,321.1,268.3,319.9,272.7z"/>
				</g>
			</g>
		</g>
	</g>
</g>
</svg>
